<svg id="visual" viewBox="0 0 960 540" width="960" height="540" xmlns="http://www.w3.org/2000/svg" xmlns:xlink="http://www.w3.org/1999/xlink" version="1.1"><rect x="0" y="0" width="960" height="540" fill="#FF0066"></rect><g transform="translate(463.8928220602286 281.0531549075704)"><path d="M93.1 -160.6C120.3 -145.6 141.5 -119.8 158.8 -91.2C176 -62.7 189.3 -31.3 184.4 -2.8C179.5 25.7 156.4 51.3 139 79.6C121.6 107.9 109.8 138.8 87.6 149.2C65.3 159.5 32.7 149.2 4.5 141.5C-23.7 133.7 -47.3 128.3 -65.6 115.7C-83.9 103.1 -96.7 83.2 -113.9 62.7C-131.1 42.2 -152.5 21.1 -153.2 -0.4C-153.8 -21.8 -133.6 -43.7 -116.2 -63.7C-98.8 -83.8 -84.1 -102.1 -65.2 -121.8C-46.3 -141.6 -23.2 -162.8 4.9 -171.3C33 -179.8 66 -175.6 93.1 -160.6" fill="#BB004B"></path></g></svg>