<svg width="1576" height="293" viewBox="0 0 1576 293" fill="none" xmlns="http://www.w3.org/2000/svg">
<path d="M204.46 121.909C204.46 145.702 199.95 165.943 190.93 182.634C181.982 199.324 169.766 212.072 154.283 220.879C138.871 229.615 121.541 233.983 102.294 233.983C82.9048 233.983 65.5043 229.58 50.0923 220.773C34.6804 211.966 22.5 199.217 13.5511 182.527C4.60227 165.837 0.127841 145.631 0.127841 121.909C0.127841 98.1165 4.60227 77.875 13.5511 61.1847C22.5 44.4943 34.6804 31.7812 50.0923 23.0455C65.5043 14.2386 82.9048 9.83522 102.294 9.83522C121.541 9.83522 138.871 14.2386 154.283 23.0455C169.766 31.7812 181.982 44.4943 190.93 61.1847C199.95 77.875 204.46 98.1165 204.46 121.909ZM157.692 121.909C157.692 106.497 155.384 93.5 150.767 82.9176C146.222 72.3352 139.794 64.3097 131.484 58.8409C123.175 53.3722 113.445 50.6378 102.294 50.6378C91.1435 50.6378 81.4134 53.3722 73.1037 58.8409C64.794 64.3097 58.331 72.3352 53.7145 82.9176C49.169 93.5 46.8963 106.497 46.8963 121.909C46.8963 137.321 49.169 150.318 53.7145 160.901C58.331 171.483 64.794 179.509 73.1037 184.977C81.4134 190.446 91.1435 193.18 102.294 193.18C113.445 193.18 123.175 190.446 131.484 184.977C139.794 179.509 146.222 171.483 150.767 160.901C155.384 150.318 157.692 137.321 157.692 121.909ZM237.779 292.364V67.3636H282.523V94.8494H284.547C286.536 90.446 289.412 85.9716 293.176 81.4261C297.012 76.8097 301.983 72.9744 308.091 69.9205C314.27 66.7955 321.941 65.233 331.103 65.233C343.034 65.233 354.043 68.358 364.128 74.608C374.213 80.7869 382.275 90.1264 388.311 102.626C394.348 115.055 397.367 130.645 397.367 149.395C397.367 167.648 394.419 183.06 388.525 195.631C382.701 208.131 374.746 217.612 364.661 224.075C354.647 230.467 343.425 233.663 330.996 233.663C322.189 233.663 314.696 232.207 308.517 229.295C302.409 226.384 297.402 222.726 293.496 218.322C289.59 213.848 286.607 209.338 284.547 204.793H283.162V292.364H237.779ZM282.203 149.182C282.203 158.912 283.553 167.399 286.252 174.643C288.951 181.888 292.857 187.534 297.971 191.582C303.084 195.56 309.299 197.548 316.614 197.548C324 197.548 330.25 195.524 335.364 191.476C340.478 187.357 344.348 181.675 346.976 174.43C349.675 167.115 351.025 158.699 351.025 149.182C351.025 139.736 349.711 131.426 347.083 124.253C344.455 117.08 340.584 111.469 335.471 107.42C330.357 103.372 324.071 101.348 316.614 101.348C309.228 101.348 302.978 103.301 297.864 107.207C292.821 111.114 288.951 116.653 286.252 123.827C283.553 131 282.203 139.452 282.203 149.182ZM502.196 234.196C485.364 234.196 470.875 230.787 458.73 223.969C446.657 217.08 437.353 207.349 430.819 194.778C424.284 182.136 421.017 167.186 421.017 149.928C421.017 133.095 424.284 118.322 430.819 105.609C437.353 92.8963 446.55 82.9886 458.411 75.8864C470.343 68.7841 484.334 65.233 500.385 65.233C511.181 65.233 521.23 66.973 530.534 70.4531C539.909 73.8622 548.077 79.0114 555.037 85.9006C562.069 92.7898 567.537 101.455 571.444 111.895C575.35 122.264 577.303 134.409 577.303 148.33V160.794H439.128V132.669H534.583C534.583 126.135 533.162 120.347 530.321 115.304C527.48 110.261 523.539 106.32 518.496 103.479C513.525 100.567 507.736 99.1108 501.131 99.1108C494.242 99.1108 488.134 100.709 482.807 103.905C477.551 107.03 473.432 111.256 470.449 116.582C467.466 121.838 465.939 127.697 465.868 134.161V160.901C465.868 168.997 467.36 175.993 470.343 181.888C473.397 187.783 477.694 192.328 483.233 195.524C488.773 198.72 495.343 200.318 502.942 200.318C507.985 200.318 512.601 199.608 516.792 198.188C520.982 196.767 524.569 194.636 527.551 191.795C530.534 188.955 532.807 185.474 534.37 181.355L576.344 184.125C574.213 194.21 569.846 203.017 563.24 210.545C556.706 218.003 548.255 223.827 537.885 228.017C527.587 232.136 515.691 234.196 502.196 234.196ZM652.303 136.398V231H606.919V67.3636H650.172V96.2344H652.09C655.712 86.7173 661.784 79.1889 670.307 73.6491C678.83 68.0384 689.164 65.233 701.309 65.233C712.672 65.233 722.58 67.7187 731.032 72.6903C739.483 77.6619 746.053 84.7642 750.74 93.9972C755.428 103.159 757.772 114.097 757.772 126.81V231H712.388V134.906C712.459 124.892 709.902 117.08 704.718 111.469C699.533 105.787 692.395 102.946 683.304 102.946C677.196 102.946 671.799 104.26 667.111 106.888C662.495 109.516 658.873 113.351 656.245 118.393C653.688 123.365 652.374 129.366 652.303 136.398ZM818.576 12.8182L871.31 178.585H873.335L926.175 12.8182H977.312L902.099 231H842.653L767.333 12.8182H818.576ZM1058.2 234.196C1041.65 234.196 1027.34 230.68 1015.26 223.649C1003.26 216.547 993.993 206.675 987.459 194.033C980.925 181.32 977.658 166.582 977.658 149.821C977.658 132.918 980.925 118.145 987.459 105.503C993.993 92.7898 1003.26 82.9176 1015.26 75.8864C1027.34 68.7841 1041.65 65.233 1058.2 65.233C1074.75 65.233 1089.02 68.7841 1101.02 75.8864C1113.1 82.9176 1122.4 92.7898 1128.94 105.503C1135.47 118.145 1138.74 132.918 1138.74 149.821C1138.74 166.582 1135.47 181.32 1128.94 194.033C1122.4 206.675 1113.1 216.547 1101.02 223.649C1089.02 230.68 1074.75 234.196 1058.2 234.196ZM1058.41 199.04C1065.94 199.04 1072.22 196.909 1077.27 192.648C1082.31 188.315 1086.11 182.42 1088.67 174.963C1091.29 167.506 1092.61 159.018 1092.61 149.501C1092.61 139.984 1091.29 131.497 1088.67 124.04C1086.11 116.582 1082.31 110.687 1077.27 106.355C1072.22 102.023 1065.94 99.8565 1058.41 99.8565C1050.81 99.8565 1044.42 102.023 1039.23 106.355C1034.12 110.687 1030.25 116.582 1027.62 124.04C1025.07 131.497 1023.79 139.984 1023.79 149.501C1023.79 159.018 1025.07 167.506 1027.62 174.963C1030.25 182.42 1034.12 188.315 1039.23 192.648C1044.42 196.909 1050.81 199.04 1058.41 199.04ZM1168.25 231V67.3636H1213.63V231H1168.25ZM1191.05 46.2699C1184.3 46.2699 1178.51 44.0327 1173.68 39.5582C1168.92 35.0128 1166.54 29.5795 1166.54 23.2585C1166.54 17.0085 1168.92 11.6463 1173.68 7.17188C1178.51 2.62641 1184.3 0.353682 1191.05 0.353682C1197.79 0.353682 1203.55 2.62641 1208.3 7.17188C1213.13 11.6463 1215.55 17.0085 1215.55 23.2585C1215.55 29.5795 1213.13 35.0128 1208.3 39.5582C1203.55 44.0327 1197.79 46.2699 1191.05 46.2699ZM1323.92 234.196C1307.16 234.196 1292.74 230.645 1280.67 223.543C1268.66 216.369 1259.43 206.426 1252.97 193.713C1246.58 181 1243.38 166.369 1243.38 149.821C1243.38 133.06 1246.61 118.358 1253.08 105.716C1259.61 93.0028 1268.88 83.0952 1280.88 75.9929C1292.88 68.8196 1307.16 65.233 1323.71 65.233C1337.98 65.233 1350.48 67.8253 1361.21 73.0099C1371.93 78.1946 1380.42 85.4744 1386.67 94.8494C1392.92 104.224 1396.36 115.233 1397 127.875H1354.18C1352.97 119.707 1349.77 113.138 1344.59 108.166C1339.47 103.124 1332.76 100.602 1324.45 100.602C1317.42 100.602 1311.28 102.52 1306.02 106.355C1300.84 110.119 1296.79 115.624 1293.88 122.868C1290.97 130.112 1289.51 138.884 1289.51 149.182C1289.51 159.622 1290.93 168.5 1293.77 175.815C1296.68 183.131 1300.77 188.706 1306.02 192.541C1311.28 196.376 1317.42 198.294 1324.45 198.294C1329.64 198.294 1334.29 197.229 1338.41 195.098C1342.6 192.967 1346.04 189.878 1348.74 185.83C1351.51 181.71 1353.32 176.774 1354.18 171.021H1397C1396.29 183.521 1392.88 194.53 1386.78 204.047C1380.74 213.493 1372.39 220.879 1361.74 226.206C1351.09 231.533 1338.48 234.196 1323.92 234.196ZM1500.63 234.196C1483.8 234.196 1469.31 230.787 1457.17 223.969C1445.09 217.08 1435.79 207.349 1429.26 194.778C1422.72 182.136 1419.45 167.186 1419.45 149.928C1419.45 133.095 1422.72 118.322 1429.26 105.609C1435.79 92.8963 1444.99 82.9886 1456.85 75.8864C1468.78 68.7841 1482.77 65.233 1498.82 65.233C1509.62 65.233 1519.67 66.973 1528.97 70.4531C1538.35 73.8622 1546.51 79.0114 1553.47 85.9006C1560.51 92.7898 1565.97 101.455 1569.88 111.895C1573.79 122.264 1575.74 134.409 1575.74 148.33V160.794H1437.57V132.669H1533.02C1533.02 126.135 1531.6 120.347 1528.76 115.304C1525.92 110.261 1521.98 106.32 1516.93 103.479C1511.96 100.567 1506.17 99.1108 1499.57 99.1108C1492.68 99.1108 1486.57 100.709 1481.24 103.905C1475.99 107.03 1471.87 111.256 1468.89 116.582C1465.9 121.838 1464.38 127.697 1464.31 134.161V160.901C1464.31 168.997 1465.8 175.993 1468.78 181.888C1471.83 187.783 1476.13 192.328 1481.67 195.524C1487.21 198.72 1493.78 200.318 1501.38 200.318C1506.42 200.318 1511.04 199.608 1515.23 198.188C1519.42 196.767 1523.01 194.636 1525.99 191.795C1528.97 188.955 1531.24 185.474 1532.81 181.355L1574.78 184.125C1572.65 194.21 1568.28 203.017 1561.68 210.545C1555.14 218.003 1546.69 223.827 1536.32 228.017C1526.02 232.136 1514.13 234.196 1500.63 234.196Z" fill="white"/>
</svg>
