<svg id="visual" viewBox="0 0 960 540" width="960" height="540" xmlns="http://www.w3.org/2000/svg" xmlns:xlink="http://www.w3.org/1999/xlink" version="1.1"><rect x="0" y="0" width="960" height="540" fill="#FF0066"></rect><g transform="translate(484.0895393402964 272.8565275270082)"><path d="M91.9 -164.5C116.3 -145.1 131.3 -114.8 140.6 -85.6C149.9 -56.3 153.5 -28.2 157.1 2.1C160.7 32.3 164.3 64.7 150.7 86.3C137 108 106 118.9 78 134.6C50 150.3 25 170.6 -4.2 177.9C-33.3 185.1 -66.7 179.1 -84.9 157.9C-103.2 136.6 -106.4 99.9 -119.6 71.1C-132.7 42.2 -155.9 21.1 -164.6 -5C-173.3 -31.2 -167.6 -62.3 -148.6 -81.1C-129.6 -99.9 -97.3 -106.2 -70.3 -124.1C-43.3 -142.1 -21.7 -171.5 6 -182C33.7 -192.5 67.5 -183.9 91.9 -164.5" fill="#BB004B"></path></g></svg>